<?xml version="1.0" standalone="no"?>
<!DOCTYPE svg PUBLIC "-//W3C//DTD SVG 20010904//EN"
 "http://www.w3.org/TR/2001/REC-SVG-20010904/DTD/svg10.dtd">
<svg version="1.0" xmlns="http://www.w3.org/2000/svg"
 width="120.000000pt" height="120.000000pt" viewBox="0 0 120.000000 120.000000"
 preserveAspectRatio="xMidYMid meet">

<g transform="translate(0.000000,120.000000) scale(0.100000,-0.100000)"
fill="#000000" stroke="none">
<path d="M498 1190 c-124 -22 -229 -77 -321 -168 -31 -31 -57 -59 -57 -63 0
-3 25 2 55 13 48 16 82 18 268 16 205 -3 212 -4 211 -23 -1 -11 -5 -29 -9 -39
-9 -20 -8 -20 21 0 85 58 199 83 296 66 35 -6 74 -14 88 -18 21 -5 16 3 -28
48 -64 66 -154 121 -241 149 -74 22 -213 32 -283 19z"/>
<path d="M815 890 c-27 -4 -82 -20 -122 -38 -39 -18 -76 -32 -82 -32 -17 0
-23 20 -10 36 10 13 -2 14 -106 12 l-119 -3 -32 -195 c-18 -107 -36 -246 -40
-309 -8 -132 -16 -146 -90 -157 -40 -6 -50 -4 -62 12 -39 52 32 455 113 638 8
17 5 19 -36 14 -24 -3 -77 -15 -116 -27 l-73 -22 -17 -57 c-26 -86 -24 -247 4
-337 59 -188 211 -339 398 -398 98 -30 252 -30 350 0 186 58 340 211 396 392
11 36 22 105 25 155 5 90 5 91 -13 66 -77 -106 -137 -143 -233 -143 -73 0
-110 14 -110 43 0 14 12 21 50 29 77 17 109 37 131 84 26 59 25 146 -2 181
-11 14 -30 31 -42 38 -30 16 -102 24 -162 18z m19 -64 c7 -28 -7 -141 -34
-271 -10 -49 -21 -139 -24 -199 -3 -60 -11 -115 -17 -122 -16 -20 -83 -38
-112 -30 -20 5 -25 14 -30 51 -16 112 50 394 118 511 23 40 68 84 85 84 4 0
11 -11 14 -24z"/>
</g>
</svg>
